<mxfile host="app.diagrams.net" modified="2024-07-18T08:19:04.956Z" agent="Mozilla/5.0 (Windows NT 10.0; Win64; x64; rv:129.0) Gecko/20100101 Firefox/129.0" etag="xXtuLbqjYY6SPicliu_y" version="24.6.5" type="device">
  <diagram name="PÃ¡gina-1" id="XxusXtqWIYmDUuxLCBdK">
    <mxGraphModel dx="2796" dy="2080" grid="1" gridSize="10" guides="1" tooltips="1" connect="1" arrows="1" fold="1" page="1" pageScale="1" pageWidth="827" pageHeight="1169" math="0" shadow="0">
      <root>
        <mxCell id="0" />
        <mxCell id="1" parent="0" />
        <mxCell id="w2bOd_ULWED4dcGwbWaT-4" value="Usuario" style="rounded=0;whiteSpace=wrap;html=1;" vertex="1" parent="1">
          <mxGeometry x="-330" y="10" width="180" height="210" as="geometry" />
        </mxCell>
        <mxCell id="w2bOd_ULWED4dcGwbWaT-14" style="edgeStyle=orthogonalEdgeStyle;rounded=0;orthogonalLoop=1;jettySize=auto;html=1;" edge="1" parent="1" source="w2bOd_ULWED4dcGwbWaT-7">
          <mxGeometry relative="1" as="geometry">
            <mxPoint x="700" y="105" as="targetPoint" />
          </mxGeometry>
        </mxCell>
        <mxCell id="w2bOd_ULWED4dcGwbWaT-26" style="edgeStyle=orthogonalEdgeStyle;rounded=0;orthogonalLoop=1;jettySize=auto;html=1;entryX=0;entryY=0.5;entryDx=0;entryDy=0;" edge="1" parent="1" source="w2bOd_ULWED4dcGwbWaT-7" target="w2bOd_ULWED4dcGwbWaT-25">
          <mxGeometry relative="1" as="geometry" />
        </mxCell>
        <mxCell id="w2bOd_ULWED4dcGwbWaT-7" value="&lt;div&gt;Services&lt;/div&gt;" style="rounded=0;whiteSpace=wrap;html=1;" vertex="1" parent="1">
          <mxGeometry x="380" y="20" width="180" height="170" as="geometry" />
        </mxCell>
        <mxCell id="w2bOd_ULWED4dcGwbWaT-8" value="Location" style="rounded=0;whiteSpace=wrap;html=1;" vertex="1" parent="1">
          <mxGeometry x="380" y="310" width="180" height="170" as="geometry" />
        </mxCell>
        <mxCell id="w2bOd_ULWED4dcGwbWaT-9" value="Availability" style="rounded=0;whiteSpace=wrap;html=1;" vertex="1" parent="1">
          <mxGeometry x="380" y="-310" width="180" height="170" as="geometry" />
        </mxCell>
        <mxCell id="w2bOd_ULWED4dcGwbWaT-21" style="edgeStyle=orthogonalEdgeStyle;rounded=0;orthogonalLoop=1;jettySize=auto;html=1;entryX=0;entryY=0.5;entryDx=0;entryDy=0;" edge="1" parent="1" source="w2bOd_ULWED4dcGwbWaT-13" target="w2bOd_ULWED4dcGwbWaT-9">
          <mxGeometry relative="1" as="geometry" />
        </mxCell>
        <mxCell id="w2bOd_ULWED4dcGwbWaT-23" style="edgeStyle=orthogonalEdgeStyle;rounded=0;orthogonalLoop=1;jettySize=auto;html=1;entryX=1;entryY=0.5;entryDx=0;entryDy=0;" edge="1" parent="1" source="w2bOd_ULWED4dcGwbWaT-13" target="w2bOd_ULWED4dcGwbWaT-4">
          <mxGeometry relative="1" as="geometry" />
        </mxCell>
        <mxCell id="w2bOd_ULWED4dcGwbWaT-24" style="edgeStyle=orthogonalEdgeStyle;rounded=0;orthogonalLoop=1;jettySize=auto;html=1;entryX=0;entryY=0.5;entryDx=0;entryDy=0;" edge="1" parent="1" source="w2bOd_ULWED4dcGwbWaT-13" target="w2bOd_ULWED4dcGwbWaT-8">
          <mxGeometry relative="1" as="geometry" />
        </mxCell>
        <mxCell id="w2bOd_ULWED4dcGwbWaT-13" value="Provider&lt;br&gt;Data" style="ellipse;whiteSpace=wrap;html=1;aspect=fixed;" vertex="1" parent="1">
          <mxGeometry x="10" y="75" width="80" height="80" as="geometry" />
        </mxCell>
        <mxCell id="w2bOd_ULWED4dcGwbWaT-15" value="&lt;div&gt;Category&lt;/div&gt;" style="whiteSpace=wrap;html=1;aspect=fixed;" vertex="1" parent="1">
          <mxGeometry x="700" y="52.5" width="105" height="105" as="geometry" />
        </mxCell>
        <mxCell id="w2bOd_ULWED4dcGwbWaT-18" style="edgeStyle=orthogonalEdgeStyle;rounded=0;orthogonalLoop=1;jettySize=auto;html=1;entryX=0.5;entryY=0;entryDx=0;entryDy=0;" edge="1" parent="1" source="w2bOd_ULWED4dcGwbWaT-17" target="w2bOd_ULWED4dcGwbWaT-4">
          <mxGeometry relative="1" as="geometry" />
        </mxCell>
        <mxCell id="w2bOd_ULWED4dcGwbWaT-20" style="edgeStyle=orthogonalEdgeStyle;rounded=0;orthogonalLoop=1;jettySize=auto;html=1;" edge="1" parent="1" source="w2bOd_ULWED4dcGwbWaT-17" target="w2bOd_ULWED4dcGwbWaT-7">
          <mxGeometry relative="1" as="geometry" />
        </mxCell>
        <mxCell id="w2bOd_ULWED4dcGwbWaT-17" value="Booking" style="whiteSpace=wrap;html=1;aspect=fixed;" vertex="1" parent="1">
          <mxGeometry x="-40" y="-170" width="160" height="160" as="geometry" />
        </mxCell>
        <mxCell id="w2bOd_ULWED4dcGwbWaT-22" style="edgeStyle=orthogonalEdgeStyle;rounded=0;orthogonalLoop=1;jettySize=auto;html=1;entryX=0.016;entryY=0.554;entryDx=0;entryDy=0;entryPerimeter=0;" edge="1" parent="1" source="w2bOd_ULWED4dcGwbWaT-13" target="w2bOd_ULWED4dcGwbWaT-7">
          <mxGeometry relative="1" as="geometry" />
        </mxCell>
        <mxCell id="w2bOd_ULWED4dcGwbWaT-29" style="edgeStyle=orthogonalEdgeStyle;rounded=0;orthogonalLoop=1;jettySize=auto;html=1;entryX=0.5;entryY=1;entryDx=0;entryDy=0;exitX=1;exitY=0.5;exitDx=0;exitDy=0;" edge="1" parent="1" source="w2bOd_ULWED4dcGwbWaT-25" target="w2bOd_ULWED4dcGwbWaT-4">
          <mxGeometry relative="1" as="geometry">
            <mxPoint x="-160" y="282.5" as="targetPoint" />
            <mxPoint x="770" y="-27.5" as="sourcePoint" />
            <Array as="points">
              <mxPoint x="850" y="-90" />
              <mxPoint x="850" y="290" />
              <mxPoint x="-240" y="290" />
            </Array>
          </mxGeometry>
        </mxCell>
        <mxCell id="w2bOd_ULWED4dcGwbWaT-25" value="Reviews" style="whiteSpace=wrap;html=1;aspect=fixed;" vertex="1" parent="1">
          <mxGeometry x="690" y="-152.5" width="125" height="125" as="geometry" />
        </mxCell>
      </root>
    </mxGraphModel>
  </diagram>
</mxfile>
